<?xml version="1.0" encoding="utf-8"?>
<!-- Generator: Adobe Illustrator 23.0.0, SVG Export Plug-In . SVG Version: 6.00 Build 0)  -->
<svg version="1.1" id="Layer_1" xmlns="http://www.w3.org/2000/svg" xmlns:xlink="http://www.w3.org/1999/xlink" x="0px" y="0px"
	 viewBox="0 0 86.6 64.1" style="enable-background:new 0 0 86.6 64.1;" xml:space="preserve">
<style type="text/css">
	.st0{fill:#0080FF;}
</style>
<g>
	<path class="st0" d="M43.3,34.6h-8.2v-8.1h8.2L43.3,34.6c7.2,0,13-5.8,13-13c0-1.6-0.3-3.2-0.9-4.7c-1.3-3.4-3.9-6-7.3-7.3
		c-9.1-3.3-17.8,3.4-17.8,12h-8.2c0-13.8,13.4-24.5,27.9-20c6.3,2,11.4,7,13.4,13.3c4.5,14.4-6.3,27.8-20.1,27.8L43.3,34.6
		L43.3,34.6z M35.1,40.8h-6.3v-6.2h6.3L35.1,40.8L35.1,40.8z M28.9,34.6h-5.3v-5.2h5.3L28.9,34.6L28.9,34.6z M8.3,51
		c0.6,0.4,1.1,1,1.4,1.7c0.3,0.7,0.5,1.6,0.5,2.5s-0.2,1.8-0.5,2.5c-0.3,0.7-0.8,1.3-1.4,1.7c-1.1,0.8-2.4,1.2-3.9,1.2H1V49.9h3.4
		C5.9,49.9,7.2,50.2,8.3,51L8.3,51z M2.9,51.7v7H4c1.2,0,2.2-0.2,2.9-0.7c0.8-0.5,1.2-1.5,1.2-2.9c0-1.3-0.4-2.3-1.2-2.8
		c-0.7-0.5-1.7-0.7-2.9-0.7L2.9,51.7L2.9,51.7z M12.5,49.7c0.3,0,0.6,0.1,0.8,0.3c0.2,0.2,0.3,0.5,0.3,0.8c0,0.3-0.1,0.6-0.3,0.8
		c-0.2,0.2-0.5,0.3-0.8,0.3c-0.3,0-0.6-0.1-0.8-0.3c-0.2-0.2-0.3-0.5-0.3-0.8s0.1-0.6,0.3-0.8C11.9,49.9,12.2,49.7,12.5,49.7
		L12.5,49.7z M11.5,53h1.9v7.5h-1.9V53z M20.3,53.6L20.3,53.6l0-0.6h1.9v6.8c0,1.1-0.3,2-1,2.7s-1.6,1-2.7,1c-0.8,0-1.6-0.2-2.1-0.6
		c-0.6-0.4-1-0.7-1.3-1.1l0,0l1.3-1.2c0.7,0.9,1.2,1.2,2.1,1.2c0.6,0,1-0.2,1.4-0.5s0.5-0.8,0.5-1.4v-0.2c-0.5,0.4-1.2,0.6-1.9,0.6
		c-1,0-1.9-0.4-2.6-1.1c-0.7-0.7-1-1.6-1-2.7c0-1.1,0.4-2,1-2.7c0.7-0.7,1.5-1.1,2.6-1.1C19.1,52.8,19.7,53.1,20.3,53.6L20.3,53.6z
		 M19.8,58.1c0.3-0.4,0.5-0.9,0.5-1.5s-0.2-1.1-0.5-1.5c-0.3-0.4-0.8-0.6-1.3-0.5c-0.5,0-1,0.2-1.3,0.6s-0.5,0.9-0.5,1.5
		c0,0.6,0.1,1.1,0.5,1.5c0.3,0.4,0.8,0.6,1.3,0.5C19,58.6,19.5,58.4,19.8,58.1z M23.8,53h1.9v7.5h-1.9L23.8,53L23.8,53z M24.8,49.7
		c0.3,0,0.6,0.1,0.8,0.3c0.2,0.2,0.3,0.5,0.3,0.8c0,0.3-0.1,0.6-0.3,0.8c-0.2,0.2-0.5,0.3-0.8,0.3c-0.3,0-0.6-0.1-0.8-0.3
		c-0.2-0.2-0.3-0.5-0.3-0.8s0.1-0.6,0.3-0.8C24.1,49.9,24.4,49.7,24.8,49.7L24.8,49.7z M29.9,51v2h1.8v1.7h-1.8v2.8
		c0,0.5,0.1,0.8,0.2,1s0.4,0.2,0.9,0.2l0.6,0v1.7h-0.1c-0.3,0-0.6,0-0.9,0c-1,0-1.7-0.2-2-0.6S28,58.8,28,57.8v-3.1h-1.1V53H28v-2
		L29.9,51L29.9,51z M40.5,49.8h1.9v10.6h-1.9V49.8L40.5,49.8z M61.6,57.8l1.3,1.2c-0.7,1.1-1.9,1.7-3.2,1.7c-1.1,0-1.9-0.4-2.7-1.1
		c-0.7-0.7-1.1-1.7-1.1-2.8s0.4-2.1,1.1-2.8s1.7-1.1,2.7-1.1c1.3,0,2.3,0.5,3.1,1.6l-1.3,1.2c-0.6-0.6-1.2-1-1.8-1
		c-0.5,0-1,0.2-1.4,0.6c-0.4,0.4-0.6,0.9-0.6,1.6c0,0.6,0.2,1.2,0.6,1.6c0.4,0.4,0.8,0.6,1.4,0.6c0.3,0,0.7-0.1,1-0.3
		C60.9,58.5,61.2,58.2,61.6,57.8L61.6,57.8z M69.4,54c0.3,0.4,0.5,0.8,0.6,1.2c0.1,0.5,0.2,0.9,0.2,1.4l0,0.7h-5
		c0,0.5,0.2,0.9,0.6,1.1c0.3,0.3,0.8,0.5,1.3,0.5c0.4,0,0.7-0.1,1-0.2c0.2-0.1,0.4-0.2,0.6-0.4l0.4-0.4l1.3,1.2l0,0
		c-0.8,1-1.8,1.5-3.1,1.5c-1.1,0-2-0.4-2.7-1.1c-0.7-0.7-1-1.6-1-2.8c0-1.1,0.3-2.1,1-2.8c0.6-0.8,1.5-1.1,2.6-1.1
		c0.6,0,1.1,0.1,1.6,0.3S69.1,53.7,69.4,54L69.4,54z M65.2,55.8h2.9c0-0.4-0.2-0.6-0.4-0.9c-0.2-0.3-0.6-0.4-1.1-0.4
		c-0.4,0-0.7,0.1-1,0.4C65.5,55.1,65.3,55.5,65.2,55.8L65.2,55.8z M76.6,53.6c0.6,0.5,0.9,1.2,0.9,2.1v4.8h-1.9v-0.6
		c-0.6,0.5-1.3,0.8-2,0.8s-1.3-0.2-1.8-0.6c-0.5-0.4-0.7-1-0.7-1.7c0-0.8,0.3-1.5,0.9-1.9s1.3-0.6,2.3-0.6c0.5,0,0.9,0.1,1.4,0.2
		v-0.4c0-0.3-0.1-0.6-0.4-0.8c-0.3-0.2-0.6-0.3-1-0.3c-0.7,0-1.3,0.3-1.8,1.1l-1.2-1.1l0,0c0.3-0.5,0.8-0.9,1.3-1.2
		c0.5-0.3,1.1-0.4,1.8-0.4C75.3,52.9,76.1,53.1,76.6,53.6L76.6,53.6z M73.3,57.6C73.1,57.8,73,58,73,58.2c0,0.2,0.1,0.4,0.3,0.6
		c0.2,0.1,0.4,0.2,0.8,0.2c0.7,0,1.2-0.2,1.6-0.6v-0.7c-0.5-0.2-1-0.3-1.4-0.3C73.8,57.4,73.5,57.5,73.3,57.6L73.3,57.6z M84.8,53.7
		c0.5,0.6,0.8,1.4,0.8,2.4v4.3h-1.9v-4.3c0-0.5-0.1-0.9-0.4-1.2s-0.6-0.4-1-0.4c-0.5,0-0.9,0.2-1.1,0.5s-0.4,0.8-0.4,1.3v4.1h-1.9
		V53h1.8v0.5c0.5-0.4,1.1-0.6,1.8-0.6C83.5,52.8,84.3,53.1,84.8,53.7L84.8,53.7z M38.1,53.6c0.6,0.5,0.9,1.2,0.9,2.1v4.8h-1.9v-0.6
		c-0.6,0.5-1.3,0.8-2,0.8s-1.3-0.2-1.8-0.6c-0.5-0.4-0.7-1-0.7-1.7c0-0.8,0.3-1.5,0.9-1.9s1.3-0.6,2.3-0.6c0.5,0,0.9,0.1,1.4,0.2
		v-0.4c0-0.3-0.1-0.6-0.4-0.8c-0.3-0.2-0.6-0.3-1-0.3c-0.7,0-1.3,0.3-1.8,1.1l-1.2-1.2l0,0c0.3-0.5,0.8-0.9,1.3-1.2
		c0.5-0.3,1.1-0.4,1.8-0.4C36.8,52.8,37.5,53.1,38.1,53.6L38.1,53.6z M34.8,57.6c-0.2,0.1-0.3,0.3-0.3,0.6c0,0.2,0.1,0.4,0.3,0.6
		c0.2,0.1,0.4,0.2,0.8,0.2c0.7,0,1.2-0.2,1.6-0.6v-0.7c-0.5-0.2-1-0.3-1.4-0.3C35.3,57.4,35,57.5,34.8,57.6L34.8,57.6z M49.3,60.7
		c-3.1,0-5.5-2.5-5.5-5.5s2.5-5.5,5.5-5.5s5.5,2.5,5.5,5.5S52.3,60.7,49.3,60.7z M49.3,51.6c-2,0-3.6,1.6-3.6,3.6s1.6,3.6,3.6,3.6
		s3.6-1.6,3.6-3.6S51.3,51.6,49.3,51.6z"/>
</g>
</svg>
