<?xml version="1.0" encoding="utf-8"?>
<!-- Generator: Adobe Illustrator 23.0.0, SVG Export Plug-In . SVG Version: 6.00 Build 0)  -->
<svg version="1.1" id="Layer_1" xmlns="http://www.w3.org/2000/svg" xmlns:xlink="http://www.w3.org/1999/xlink" x="0px" y="0px"
	 viewBox="0 0 120 47.6" style="enable-background:new 0 0 120 47.6;" xml:space="preserve">
<g>
	<path d="M16.5,41.9c-2-1.6-4.1-3.1-5.5-5.2c-3-3.7-5.4-8-7-12.5c-1-2.9-1.3-6.1-2.5-8.9c-1.3-2.1,0.2-4.3,2.5-4.9
		c1-0.2,2.8-1.1,0.6-0.5c-1.9,1.4-2.1-1.3-0.1-1.4c1.3-0.2,1.8-1.3,1.4-2.2c-1.4-0.9,3.5-2,1-3.3c-2.6-2.8,3.6-3.3,2.1-0.2
		C8.5,5.2,13.1,2.3,12,5.1c1.1,1.3,4.1,0.3,4,2.2c1.6,0.1,2.2,1.4,3.7,1.6c1.6,0.7,4.4,1.3,4.9,3c-1.6,1.2-5.1-2.5-5.3,0.9
		c0.5,5,0.3,10.2,2.2,14.9c0.9,2.9,3,5.2,4.9,7.4c1.8,2.2,4.3,3.8,6.8,5.1c2.2,1,4.6,1.7,7,2.2c1-0.7,2.7-3.5,4.2-2.3
		c0.1,1.3-3,2.7-0.1,2.6c1.7-0.5,2.8,1.3,4.2-0.3c1.3,1.5,5.3-1,4.4,2.1c-1.2,0.8-3,0.3-4.2,1.4c-2-1-3.6,0.9-5.9,0.7
		c-2.5,0.4-5,0.6-7.6,0.6c-4.1-0.3-8.4-0.5-12.3-1.9C20.6,44.5,18.4,43.2,16.5,41.9L16.5,41.9z M20,43.5c2.2,0.9,4.3,1.9,6.7,2.2
		c3.8,0.5,7.7,1.3,11.5,0.6c-1.7-0.8-3.5,0.3-5.2-0.6c-2,0.4-4.2-0.1-6.3-0.4c-2.4-1.1-4.9-1.8-7.1-3.1c-2.8-1,1.4,1.3,2.2,1.5
		c1.7,1-1.9-0.5-2.4-0.9c-1.5-0.8-1.6-0.6-0.1,0.2C19.4,43.1,19.7,43.3,20,43.5L20,43.5z M15.9,40.5c2.1,0.8,0-1.5-1-1.3
		c-0.4-0.7-1.6-1.2-0.8-1.6c-1.5,0.5-1.6-2-2.3-1.7c-1.6-0.5-0.6-2.3-2.6-3.4c-0.2-1.2-1.9-2.2-2.5-3.9c-0.2-0.9-2-3.5-0.9-1.1
		c0.9,2.3,2.5,4.3,3.8,6.3c1,1.9,2.2,3.9,4.1,5.1C14.4,39.4,15,40.4,15.9,40.5L15.9,40.5z M9.8,33.9C9.9,33.6,10.2,34.6,9.8,33.9z
		 M18.4,41.5C18.8,41.3,17.7,41.2,18.4,41.5z M19.5,41.9C19.4,41.3,19,42.2,19.5,41.9z M20.9,42.5C21.6,41.8,19.9,42.1,20.9,42.5z
		 M23.4,43.9C23.8,43.2,22.1,43.6,23.4,43.9z M18.7,40.6C19.7,39.9,17.3,40.6,18.7,40.6z M19.8,41.1C19.7,40.8,19.4,41.3,19.8,41.1z
		 M25.1,44.5c0.9,0.5,5,1.2,2.4,0.2C27.1,44.8,22.7,43.4,25.1,44.5z M16.6,37.8C16.5,37.5,15.3,37.4,16.6,37.8z M19.1,39.3
		C19.8,38.8,17.8,38.9,19.1,39.3z M21.2,40.6C22.1,40.2,19.7,40.2,21.2,40.6z M15.6,36.7c1,0.8,4.1,0.1,1.6-0.5
		c-1.1-0.6-3.7-1-2,0.4L15.6,36.7L15.6,36.7z M22.6,41C23,40.3,20.9,40.6,22.6,41z M20.5,39.3c2.5,0.7-2.1-1.6-0.6-0.3l0.3,0.1
		L20.5,39.3L20.5,39.3z M24.8,41.8C27.1,41.8,22.7,41.5,24.8,41.8z M14.7,35.4C14.6,34.9,14.1,35.4,14.7,35.4z M28.7,44
		C28.8,43.2,28,44.6,28.7,44z M18.7,37.8C18.6,37.4,18,37.8,18.7,37.8z M14.9,35.1C16.3,35,13.1,34.5,14.9,35.1z M10.5,32.2
		C10.3,31.6,9,31.1,10.5,32.2z M22.2,39.7C22,39.4,22.1,39.7,22.2,39.7z M29.5,44.1C29.5,43.7,29.1,44.3,29.5,44.1z M21.6,39
		C21.7,38.4,20.4,38.8,21.6,39z M16.1,35.5C17.1,35.4,14.5,34.9,16.1,35.5z M25.3,41.3C26.9,40.6,23.8,41,25.3,41.3z M20.5,38
		c1.8,0.2-2.1-1.2-0.4-0.1L20.5,38z M26.8,41.8c1.7-1,1.1,2.3,2.8,0.3c1.7-1.2-1.5,1.5,0.6,0.2c1.5-1,3.7,0.5,5.2,1c1,0,2,0.9,3,0.3
		c2-0.5-3.9-0.8-2.4-1.8c-1.8,0.5-3.2-0.6-4.1-1.8c-2.1-0.5-4.4-1.5-5.5-3.3c-0.4-0.7,0.6,0.1-0.4-1c-1.2-1.1-1.9-2.3-2.7-3.7
		c-1-0.5-1.1-2.1-1.2-0.1c0-1.3-1.2-2.2-1.5-1.8c0-1.2,1.3-0.6,0.4-1.5c-0.2-1.3-0.8-2.6-1-4.1c-0.3-0.7,0-2.2-1-0.6
		c-0.4,1.7-0.1-2.1,0.4-0.8c0.7-1.3-0.3-1.1-0.3-0.9c0.5-1.1,0.3-2.6-0.1-2c0.3-1.1,0.4-4.1-0.4-3.6c0.5-1.2,0.9-5.4-1.2-3.8
		c-0.8,0-2.3,0.3-3,0.6c2.1,1.2-0.2,0.4-1.1,0.2c-0.1,1.1-1,0.6-2.1,0.6c1.7,0.2-0.8,1.8-1.8,1.2c-1.3,0.6,1.1,2.1,0,2.6
		c0.1,0.7-2-0.3-1.8,1.4c-1.2-0.5-0.2,1.9,0.5,1.1c2.1,0.6,1.5,1.9,1.5,3.1c-0.3,0.7-1.7-1.7-0.3-1.6c-1.1-1.8-1.2-0.6-2.1,0.2
		c-0.2,0.1,2.3,1.2,0.7,1.7c1.4,0.2,1.5,1.5,1.7,2.2c0.8,0.9,0.7-1,1.7,0.1c-0.6-0.9-3.4-2.7-1.2-2.1c0-1-0.4-1.7,0.3-1.7
		c0.7-1.2-0.7,3,0.8,1.5c0.4-0.2,0.5-1.2,1.3,0.1c1.1,1.1,0.4,1.9-1.2,0.9c0.3,0.9,2.1,1.3,1.7,2.7c0.4,1.3,0.9,0.8,1.3,0.7
		c0.3,1.3,0.5,0.3,0.6-0.3c1.6,0.3,1.2,1.3,1.7,1.9c1.1,0.5-1.5-3.3,0.3-1.1c1.9,1.8,0.7,2.5-1,2.2c1.1-0.1,1.5,1.5,2.8,1.4
		c1.3,0.6,2.1,2.9-0.1,1.9c-0.8-0.7-3.4-1.5-1.2-0.2c2,0.9,3.6,1.5,5.6,2.7c1.4,1,2,2.1,2.5,2.4c-1.2,0.6-3.5-0.4-1.8-0.8
		c-1.1-0.2-2.3-0.7-1.3,0.6c0.9,0.7,3.1,0.7,3.5,0.7c-0.3,0.8-0.9,0.8,0,0.9C25.3,41.4,26.7,41.5,26.8,41.8L26.8,41.8z M24.6,35.8
		c-0.6-0.7-0.8-1.9-0.1-0.8C24.9,35.1,25.6,37,24.6,35.8z M31.6,40.2C32,40.2,31.7,40.5,31.6,40.2z M23.6,34.1
		C23.6,33.1,23.8,34.9,23.6,34.1z M22.9,33.2C22.1,31.6,23.9,33.6,22.9,33.2z M14.4,27.3C14.9,27.2,14.7,28.1,14.4,27.3z M21.2,31
		C21.5,29.9,21.5,31.9,21.2,31z M16.4,27.7C16.1,27.1,17.1,28.2,16.4,27.7z M20.5,29c-0.8-1.7,0.5-0.9,0.2,0.3L20.5,29z M13.5,24.3
		c-0.3-0.6-0.9-2.2-0.7-2.7c0.2,0.8,1.7,3.5,0.8,1.1c-1.1-2,1.3,0.7,1.5,1.2c0.1,0.5-0.7-0.1-0.1,1C13.9,23.5,14.3,25.6,13.5,24.3
		L13.5,24.3z M11.3,22.8C11.4,21.5,11.8,23.7,11.3,22.8z M12.3,23.1C12.7,22.1,13.1,24.5,12.3,23.1z M9.9,21.3
		c-0.8-0.8-1.4-1.6,0-0.5c0.6,0-1.2-1.7,0.1-0.5C11.5,20.5,10.8,22.6,9.9,21.3L9.9,21.3z M11.1,21.3C11.6,20.8,11.4,21.7,11.1,21.3z
		 M11.9,21.5C11.2,20.2,12.8,22.1,11.9,21.5z M10.4,20.1c-2.4-2.1,3,1.1,0.4,0.4L10.4,20.1z M17.1,24c-1-0.6-0.3-4.3,0.1-1.8
		c1-0.3-0.1,1.3,0.7,1.3C17.8,24.5,17.5,24.9,17.1,24L17.1,24z M19.6,25.5C19.7,24.3,19.8,26.2,19.6,25.5z M19.2,25
		C19.3,24.6,19.2,25.6,19.2,25z M10.8,19.4c-1.5-2.1,4.4,2.1,1,0.5C11.4,19.8,11,19.8,10.8,19.4z M15.6,21.9
		C15.5,20.2,15.9,22.2,15.6,21.9z M19.3,24.3C19.5,23.3,19.3,24.9,19.3,24.3z M11,18.6c0.9-0.2,3.7,1.6,1.1,0.5
		C11.9,18.8,11.3,18.9,11,18.6z M18.8,22.4c0.1-1.8,0.5-1.1,0,0.3L18.8,22.4z M11.7,17.9c0.4-0.5-1-2.4,0.2-0.7
		c0.5,0.4,1.4,0.7,0.6,0.8C13.9,19.3,12.2,18.4,11.7,17.9L11.7,17.9z M18.4,21.8C18.6,19.8,18.6,23,18.4,21.8z M11,16
		C11.2,15.9,11.1,16.4,11,16z M12.7,17.1C13.1,16.1,13.5,18.1,12.7,17.1z M17.6,19.8C17.6,19.5,17.7,20.3,17.6,19.8z M17.3,19.2
		C16.6,17.5,17.9,20.1,17.3,19.2z M16.9,18.1C16.8,17.4,17.3,18.9,16.9,18.1z M17.6,17c-0.5-0.8,0.6-3.6,0.7-1.9
		c-0.5,1.4-0.1,2.1,0.2,0.3C19.1,13.9,18.3,18.2,17.6,17z M18.3,12.8C18.5,12.5,18.3,13.1,18.3,12.8z M17.1,35.8
		C16.8,35.6,17.1,36,17.1,35.8z M19.5,37c1.3,0.3,1.3-0.2,0.1-0.4c-0.6-0.6-2.7-1.2-0.9-0.1C18.9,36.9,19.3,36.9,19.5,37L19.5,37z
		 M14.8,33.9c0.7,0.6,2.8,1.6,1.1,0.2c0.6-0.7-1.1-1-0.6-1.5c-1.4-0.9-1.1-0.8-0.1-0.8c-1.7-0.8,0.2-0.7,0.2-1.1
		c-0.7-0.1-3.3-1.2-1.7,0.1C12,30,13.2,31.1,12.7,31c-1.6-0.4,1.4,1.2-0.3,0.8c0.9,0.7,2.5,1.9,0.4,0.8C12.5,33,14.3,33.6,14.8,33.9
		L14.8,33.9z M17.3,35.3C20.3,36.3,15.8,34.1,17.3,35.3z M30.1,43.1C30.2,42.5,29.7,43.6,30.1,43.1z M31.5,43.7
		c0.7-0.7,0,1.1,1.2-0.2c0-0.9,0-1.4-1.3-0.3C31,43.4,30.8,44.2,31.5,43.7L31.5,43.7z M10.5,30.5C10.3,29.6,9,29.7,10.5,30.5z
		 M11.9,31.4C11.4,30.6,10,30.6,11.9,31.4z M19.9,36.3c0.8,0.7,3.6,0.5,1,0.1C20.5,35.8,18.4,35.9,19.9,36.3z M31,43.1
		C32.2,42.1,29.8,43.6,31,43.1z M33.5,44.8C33.5,44.5,33,45,33.5,44.8z M33.5,44.4C34.9,43,32.2,44.5,33.5,44.4z M7,27.6
		c-1.1-1.6-0.7-2.4-1.8-3.7c-0.2-1-1.9-3.3-0.9-0.9C5.3,24.4,5.5,26.7,7,27.6L7,27.6z M33.1,43.9C35.5,42.3,32.1,43.2,33.1,43.9z
		 M35,44.7C36.2,43.6,34.2,44.4,35,44.7z M10.1,28.7C10.4,28.2,9.2,28.6,10.1,28.7z M34.6,44.1c1.2-0.8-0.3-0.7-0.2,0.1L34.6,44.1z
		 M18.4,33.9C18.3,33.4,17.8,34,18.4,33.9z M19.4,34.5C19.1,33.9,18.9,34.6,19.4,34.5z M36.5,44.7c1.5-1.1-0.9-0.2-0.3,0.2
		L36.5,44.7z M35.9,44.4C37.2,43.4,34.6,44.9,35.9,44.4z M38.9,46.4C39.7,45.8,37.9,46.2,38.9,46.4z M10.8,28.3
		c1.1,0.3,4.5,2.8,2.5,0.2c-1-0.3-0.4-2.8-1.4-2.3c0.7,1.2,0.6,1.7-0.9,0.9c-1.8-0.9-1,0.4-0.7,0.8C9.8,28,11,28.3,10.8,28.3
		L10.8,28.3z M5.7,24.3c0.2-0.8-1.8-4.6-1-1.9C5.1,23,5,24,5.7,24.3z M15.1,30.1C14.5,29.6,15.1,30,15.1,30.1z M16.5,30.4
		C16.5,29.5,15,30.1,16.5,30.4z M28.8,38.2C28.6,37.6,27.9,38.2,28.8,38.2z M29.4,38.6C29.3,38.3,29.1,38.7,29.4,38.6z M34.3,41.7
		C34.8,41.3,33.7,41.6,34.3,41.7z M8.3,24.9C9.6,24.4,6.8,24.6,8.3,24.9z M27.8,37.2C27.8,36.3,26.9,37.4,27.8,37.2z M7.8,23.7
		C8.6,23.4,7,23.5,7.8,23.7z M10.3,24.9C10.2,24.6,10,25,10.3,24.9z M40.8,43.6c1.1-0.2,3.6,0.6,4-0.3c-1.3,0-4.7-1-4.8,0.2l0.3,0
		L40.8,43.6L40.8,43.6z M11.1,25.1C11.1,24.2,10.4,25.1,11.1,25.1z M4.5,20.5C4.2,18.9,3.3,20.3,4.5,20.5z M6,20.9
		C6.1,20.4,4.6,20.5,6,20.9z M6.9,21.4C6.7,21.2,6.7,21.6,6.9,21.4z M12.6,25C12.9,24.8,12,24.8,12.6,25z M6.3,20.4
		C6.2,19.1,4.5,20.2,6.3,20.4z M3.1,18.3C3.1,17.7,2.8,18.5,3.1,18.3z M3.6,17.9C3.5,17.2,3.2,18,3.6,17.9z M6.2,19.5
		c1.1-0.4-2-0.9-0.2-0.1L6.2,19.5z M41.6,41.4C42.4,40.7,40.7,41.2,41.6,41.4z M45.9,43.6C46.2,42.8,45.2,43.7,45.9,43.6z M6.5,18.1
		C6.6,17.3,5.6,18.3,6.5,18.1z M2.7,15.6c-0.2-1.2-0.2-3.2,1.8-2.5c-2.6,0.5,1.8,3.2,1.2,1.1c1.1,0.1,2.1-0.6,1.6,0.4
		c2.1-0.2,3.6-2.1,5.7-1.8c1.6-0.2,3.4-0.4,5.1-1c1.4-0.1,2.8-1.6,2-2.5c-1.9-0.2-4,0.1-6.1,0.5c-2.4,0.5-4.5,1.4-7,1.8
		c-2.3,0.3,0.5,0.9-0.2,1c-1.2,0.4,1.4,0.7-0.2,1.2c-1-0.2-2-0.5-1.6-1.6c-2.2,0.3-4.2,1.2-2.4,3.5L2.7,15.6L2.7,15.6z M8.1,12.8
		c0.5-1.9,2.8,1.6,0.9,0.3C8.8,12.9,8.4,12.8,8.1,12.8z M8.2,11.9C9,11.3,8.6,12.2,8.2,11.9z M9.2,11.9c0.1-0.9,2.2,0.5,0.4,0.3
		L9.2,11.9z M10.5,11.4C11,10.8,10.7,11.9,10.5,11.4z M10.9,11.2c0.8-1,4.5-0.6,1.8-0.1C11.9,10.5,11.4,11.4,10.9,11.2z M15.7,10.4
		C15.6,7.8,18.2,11.4,15.7,10.4z M17.1,10.4c0.5-1.3,2-0.5,0.2-0.3C17.4,10.3,17.3,10.8,17.1,10.4z M5.9,17.4
		C7.4,16.5,4.3,16.6,5.9,17.4z M7.1,17.8C7.6,17.2,5.9,17.5,7.1,17.8z M3.8,15.4C4.7,14.8,2.8,15.2,3.8,15.4z M48.5,43.4
		C48.5,42.6,47.8,43.7,48.5,43.4z M43.9,40.3C44.1,39.4,43.3,40.4,43.9,40.3z M49.7,43.7c1.2,0,3.7-0.4,1-0.4
		C50.3,43.4,48.3,43.4,49.7,43.7z M8.1,17.2c1-0.1,1.5-1.1-0.2-1c-2.7-0.3,2.3,0.9-0.3,0.6C7.2,17,8,17.3,8.1,17.2z M8.9,17.6
		C8.8,17,8.6,18,8.9,17.6z M9.9,14.9C10.4,14.4,9.4,14.8,9.9,14.9z M6.7,9.5c1.7-0.6,4.1-1.3,5,0.3c-0.8-1-0.3-2,0.5-0.5
		c1.1,1.5,1.7-0.7,1-1.2c0.8,1,1.8,1.5,0.6,0.1C15,6.5,11,8.3,10.1,8.3C9.6,8.5,5.6,9.4,6.7,9.5z M7.7,7.5c1-0.8,3.5,0.4,1.9-0.7
		C9.4,6.6,6.2,7.7,7.7,7.5z M11.4,7.7c1.2,0-0.5-1.6,0.9-0.8C12,6.1,10.6,6,9.9,5.7C9.6,6.3,10.7,7.7,11.4,7.7L11.4,7.7z M8.4,4.4
		C8.8,3.8,7.7,4.7,8.4,4.4z M9.8,4.7c1.9-0.2-0.5-0.8-0.4,0L9.8,4.7z M7.1,2.6C5.7,0.8,9.6,2.9,8.2,1.1C7.1,0.2,6,2.1,7.1,2.6z
		 M24,11.7c0.6-1.1-2.5-1.4-0.4-0.4C23.8,11.4,23.8,11.8,24,11.7z M55.2,12c-0.2,0.8-0.3,2.2-0.4,4.1c0,0.4-0.2,0.6-0.5,0.6
		c-0.3,0-0.6-0.2-0.7-0.5c-0.4-0.9-0.7-1.5-1-1.9c-0.4-0.4-0.9-0.7-1.6-0.8c-0.7-0.1-2.4-0.2-5.2-0.2c-0.6,0-1.1,0.1-1.2,0.2
		c-0.1,0.1-0.2,0.3-0.2,0.6v8.3c0,0.3,0.2,0.4,0.5,0.4l4.7-0.2c0.4-0.1,0.7-0.2,0.8-0.4s0.3-0.8,0.4-1.7c0.1-0.5,0.4-0.7,0.9-0.6
		c0.4,0.1,0.6,0.3,0.5,0.6c-0.3,1.7-0.5,3.8-0.3,6.5c0,0.3-0.2,0.5-0.6,0.5c-0.3,0-0.6-0.1-0.6-0.6c-0.3-1.5-0.9-2.3-1.8-2.5
		c-0.9-0.1-2.3-0.2-4.2-0.2c-0.2,0-0.3,0.1-0.3,0.2V33c0,0.6,0.2,1,0.7,1.2c0.4,0.2,1.1,0.3,2.3,0.5c0.6,0.1,0.9,0.3,0.8,0.8
		c-0.1,0.4-0.6,0.6-1.6,0.5c-2.9-0.2-5.3-0.2-7.2,0c-0.5,0.1-0.8-0.1-0.8-0.6c0-0.3,0.3-0.5,0.8-0.6c1.2-0.1,1.8-1.2,1.8-3.2V15.9
		c0-0.8-0.1-1.4-0.4-1.9c-0.3-0.4-0.8-0.8-1.6-1.2c-0.5-0.2-0.7-0.5-0.6-0.9c0.1-0.2,0.2-0.4,0.3-0.4c0.1,0,0.4,0,1,0.1
		c0.8,0.1,2.6,0.2,5.5,0.2l8.8-0.2c0.8-0.1,1.2,0,1.2,0.2C55.2,11.9,55.2,11.9,55.2,12L55.2,12z M67.2,35.3c0,0.5-0.3,0.7-0.8,0.6
		c-1.7-0.2-3.8-0.1-6.3,0.1c-0.5,0.1-0.8,0-0.9,0S59,35.7,59,35.4c0-0.3,0.3-0.5,1-0.7c0.7-0.2,1-0.8,1-1.8V16.2
		c0-1-0.1-1.7-0.4-2.2c-0.3-0.5-0.8-0.8-1.5-1.1c-0.4-0.1-0.6-0.3-0.6-0.6c0-0.4,0.3-0.6,0.8-0.8c0.8-0.3,1.7-0.7,2.6-1.3
		c0.7-0.4,1.2-0.7,1.4-0.7c0.5,0,0.7,0.3,0.7,0.9c0,0.6-0.1,1.2-0.1,1.8l0,3.6l0.1,16.4c0,0.7,0.2,1.3,0.6,1.6
		c0.4,0.3,1,0.6,1.9,0.7C66.9,34.8,67.2,35,67.2,35.3L67.2,35.3z M83.8,34.2c0,0.3-0.5,0.6-1.4,1.2c-0.9,0.5-1.7,0.8-2.3,0.8
		c-0.5,0-0.9-0.2-1.3-0.7c-0.4-0.5-0.6-0.7-0.8-0.7c-0.1,0-0.7,0.3-1.7,0.8c-1.1,0.5-2.1,0.8-3.2,0.8c-1,0-1.8-0.3-2.5-0.9
		c-0.7-0.6-1.1-1.5-1.1-2.6c0-2.1,2.4-3.6,7.3-4.6c0.8-0.2,1.3-0.5,1.3-1l0-1.2c0.1-2-0.8-3-2.7-3c-0.5,0-1,0.5-1.5,1.4
		c-0.5,0.9-1.1,1.5-2,1.5c-1,0.1-1.5-0.3-1.5-1.3c0-0.6,0.7-1.3,2.2-2.1c1.6-0.8,3.1-1.2,4.5-1.2c2.5,0,3.7,1.2,3.7,3.5l-0.1,7.6
		c0,0.8,0.3,1.2,1,1.2c0.1,0,0.4,0,0.8-0.1l0.7-0.1C83.6,33.5,83.8,33.7,83.8,34.2L83.8,34.2z M78.1,30.1c0-0.3-0.1-0.5-0.2-0.6
		c-0.2-0.1-0.4-0.1-0.7-0.1c-3,0.5-4.4,1.5-4.4,2.9c0,1.4,0.8,2.1,2.3,2.1c0.6,0,1.2-0.1,1.9-0.3c0.8-0.3,1.1-0.6,1.1-1L78.1,30.1
		L78.1,30.1z M97.5,32.1c0,1.3-0.5,2.3-1.5,3.1c-1,0.8-2.4,1.1-4.1,1.1c-1.2,0-2.3-0.1-3.5-0.4c-1-0.2-1.6-0.4-1.7-0.6
		c-0.1-0.2-0.1-1-0.1-2.5c0-0.6,0.1-1,0.4-1c0.3,0,0.6,0.1,0.8,0.5c0.9,1.6,2.4,2.4,4.4,2.4c1.7,0,2.6-0.6,2.6-1.8
		c0-0.5-0.2-1-0.6-1.3c-0.4-0.4-1.3-0.9-2.5-1.4c-1.8-0.8-3-1.5-3.6-2.1c-0.6-0.6-1-1.5-1-2.6c0-1.3,0.5-2.3,1.5-3.1
		c0.9-0.7,2.2-1.1,3.8-1.1c0.9,0,1.8,0.1,2.7,0.2c0.9,0.2,1.3,0.4,1.4,0.6c0.1,0.7,0.3,1.7,0.6,3c0,0.2-0.1,0.3-0.5,0.4
		c-0.4,0.1-0.7,0-0.8-0.2c-1-1.6-2.2-2.4-3.7-2.4c-1.7,0-2.5,0.5-2.5,1.6c0,0.6,0.2,1.1,0.7,1.4c0.4,0.3,1.4,0.8,2.8,1.4
		c1.6,0.7,2.6,1.3,3.2,1.8C97.1,30,97.5,31,97.5,32.1L97.5,32.1z M119.1,35.4c0,0.4-0.3,0.7-0.9,0.7l-3.4,0.2
		c-0.7,0.1-1.2,0.1-1.5-0.3c-1.9-2.1-3.6-4.3-4.9-6.5c-0.1-0.2-0.3-0.3-0.4-0.3c-0.2,0-0.6,0.2-1.1,0.6c-0.6,0.3-0.9,0.8-0.9,1.4
		l0,1.8c0,0.8,0.2,1.3,0.6,1.5c0.3,0.2,0.9,0.3,1.8,0.4c0.6,0.1,0.9,0.3,0.9,0.6c0,0.3,0,0.4-0.1,0.5c-0.1,0.1-0.3,0.1-0.7,0
		c-1.2-0.1-3.3,0-6.2,0.2c-0.7,0.1-1.1,0-1.2-0.3c0-0.1,0-0.2,0-0.4c0-0.4,0.4-0.7,1.1-0.9c0.7-0.2,1-1,1-2.4V16.2
		c0-1-0.1-1.7-0.3-2.1c-0.3-0.5-0.8-0.9-1.7-1.2c-0.4-0.1-0.6-0.3-0.6-0.6c0-0.4,0.3-0.6,0.9-0.8c0.9-0.3,1.8-0.7,2.6-1.3
		c0.7-0.4,1.1-0.7,1.2-0.7c0.5,0,0.8,0.3,0.8,1c0-0.1,0,0.5,0,1.8l0,3.6l0,11.5c0,0.3,0.1,0.5,0.3,0.5c0.2,0,0.5-0.2,0.8-0.5
		l3.7-3.1c0.3-0.3,0.4-0.6,0.4-0.7c0-0.3-0.5-0.6-1.5-0.7c-0.4-0.1-0.6-0.3-0.6-0.7c0-0.4,0.3-0.6,0.6-0.6c0.9,0.1,2.2,0.2,3.9,0.2
		l3.5,0c0.4,0,0.6,0.2,0.6,0.7c0,0.4-0.3,0.6-0.9,0.7c-0.9,0-1.8,0.2-2.7,0.6c-1.2,0.5-2.4,1.5-3.7,2.8c-0.1,0.1-0.1,0.2-0.1,0.3
		c0,0.2,0.2,0.6,0.6,1.2c1.5,2.3,3,4.1,4.3,5.3c0.9,0.7,1.7,1.1,2.4,1.1c0.6,0,0.9,0,1,0.1S119.1,35,119.1,35.4L119.1,35.4z"/>
</g>
</svg>
