<?xml version="1.0" encoding="utf-8"?>
<!-- Generator: Adobe Illustrator 23.0.0, SVG Export Plug-In . SVG Version: 6.00 Build 0)  -->
<svg version="1.1" id="Layer_1" xmlns="http://www.w3.org/2000/svg" xmlns:xlink="http://www.w3.org/1999/xlink" x="0px" y="0px"
	 viewBox="0 0 130.5 39" style="enable-background:new 0 0 130.5 39;" xml:space="preserve">
<style type="text/css">
	.st0{fill:#8E714E;}
	.st1{fill:#442D22;}
	.st2{fill:#FFFFFF;}
	.st3{fill:#A6A385;}
	.st4{fill:#499D4A;}
	.st5{fill:#58AA50;}
</style>
<g>
	<path class="st0" d="M121.4,16.3c-0.1,0-0.2,0.3-0.2,0.4l0,5.1c0,0,0.1,0.1,0.1,0.1l1.9,0c1,0,1.6-0.1,1.9-0.3
		c0.8-0.4,1.2-1.3,1.2-2.4c0-2.3-1.6-3.2-4-3.2C122.2,16.2,121.7,16.2,121.4,16.3L121.4,16.3z M127.4,26.8c0-2.3-1.7-3.6-4.8-3.6
		c-0.1,0-1.1,0-1.4,0c-0.1,0-0.2,0.1-0.2,0.1l0,5.4c0,0.4,0.4,1.1,0.8,1.3c0.4,0.2,1.4,0.3,2,0.3C125.8,30.3,127.4,29.3,127.4,26.8
		L127.4,26.8z M116.6,15l2.7,0.1l4.7,0c2,0,4.8,0.7,4.8,3.8c0,1.5-1.1,2.7-2.4,3.3c-0.1,0-0.1,0.1,0,0.1c2,0.5,3.7,1.7,3.7,4
		c0,2.3-1.4,3.7-3.4,4.6c-1.2,0.5-2.8,0.7-4.4,0.7c-1.2,0-4.4-0.1-6.2-0.1c-0.2-0.1,0.2-0.9,0.3-1.1c0.4,0,0.8,0,1.2-0.2
		c0.6-0.2,0.7-0.4,0.8-1.3l0-5.8v-5.7c0-0.7-0.3-1-0.8-1.1l-1.6-0.2C116,15.9,116.4,15.1,116.6,15L116.6,15z M103.1,29.7
		c0.6,0.4,1.7,0.6,2.6,0.6c1.3,0,2.5-0.2,3.8-1.3c1.2-1.1,2.1-2.9,2.1-5.7c0-2.7-1-4.8-3.1-6.1c-1.2-0.7-2.7-1-4.4-1
		c-0.5,0-1,0-1.3,0.2c-0.1,0-0.2,0.3-0.2,0.4c0,0.5,0,4.1,0,6.2l0,5.6C102.6,28.9,102.7,29.4,103.1,29.7L103.1,29.7z M97.7,15l3,0.1
		L106,15c2.3,0,4.3,0.6,5.7,1.8c1.7,1.5,2.6,3.5,2.6,6c0,3.6-1.6,5.6-3.2,6.8c-1.6,1.2-3.7,1.9-6.7,1.9c-1.6,0-4.3,0-6.6-0.1h0
		c-0.1-0.2,0.2-1,0.4-1.1c0.6-0.1,0.8-0.1,1.1-0.2c0.5-0.2,0.6-0.4,0.7-1.3l0-5.8l0-5.7c-0.1-0.8-0.4-1-1.1-1.2L97.3,16
		C97.2,15.9,97.6,15.1,97.7,15L97.7,15z"/>
	<path class="st1" d="M69.4,30.6c-0.6-0.1-1-0.2-1.5-0.4c-0.1,0-0.2-0.3-0.2-0.4l0-4.8c0-1.3-0.2-2.4-0.8-3.2
		c-0.6-0.9-1.6-1.4-2.7-1.4c-1,0-2.4,0.7-3.6,1.7c0,0-0.2,0.2-0.2-0.1c0-0.3,0-0.8,0.1-1.1c0-0.3-0.2-0.5-0.2-0.5
		c-0.8,0.4-2.9,0.9-3.6,0.9c-0.6,0.1-0.7,0.7-0.1,0.8h0c0.6,0.2,1.1,0.4,1.4,0.6c0.2,0.2,0.2,0.4,0.2,0.7l0,6c0,0.6-0.2,0.8-0.6,0.9
		l0,0l-1,0.2c-0.1,0.1-0.1,0.9,0,1.1l2.7-0.1l2.7,0.1c0.2-0.2,0.2-0.9,0.1-1.1c-0.4,0-0.8-0.1-1.1-0.2c-0.4-0.1-0.5-0.3-0.6-0.8
		l0-5.7c0-0.5,0.1-0.7,0.3-0.9c0.5-0.5,1.4-0.8,2.2-0.8c0.8,0,1.2,0.2,1.6,0.5c0.5,0.4,0.7,1,0.8,1.5c0.1,1,0.1,3,0.1,4.8
		c0,0.9-0.1,1.2-0.4,1.3c-0.2,0.1-0.6,0.2-1.1,0.2c-0.2,0.2-0.1,0.9,0,1.1l2.6-0.1l2.8,0.1C69.4,31.5,69.5,30.8,69.4,30.6L69.4,30.6
		z M75.9,21.6c-1.2,0-2,1-2,2.5c0,1.5,0.7,3.3,2.6,3.3c0.3,0,0.9-0.1,1.2-0.5c0.4-0.4,0.8-1.3,0.8-2.2
		C78.5,22.8,77.5,21.6,75.9,21.6L75.9,21.6z M75.7,32c-0.5,0-0.8,0.1-1,0.3c-1,0.6-1.4,1.3-1.4,2c0,0.7,0.3,1.2,0.8,1.7
		c0.7,0.6,1.6,0.9,2.8,0.9c2.4,0,3.4-1.3,3.4-2.6c0-0.9-0.4-1.5-1.4-1.8C78.4,32.1,77.2,32,75.7,32L75.7,32z M75.9,38.1
		c-1.4,0-2.5-0.3-3.3-1c-0.9-0.7-1.2-1.7-1.2-2.3c0-0.2,0-0.7,0.5-1.2c0.3-0.3,0.8-0.8,2.2-1.7c0,0,0.1,0,0.1-0.1s0-0.1-0.1-0.1
		c-1.1-0.4-1.4-1.1-1.5-1.5v0c0-0.1-0.1-0.3,0.1-0.4l0.7-0.4l1.1-0.7c0,0,0-0.1,0-0.1s0-0.1-0.1-0.1c-1.6-0.5-2.5-1.8-2.5-3.6
		c0-1.2,0.5-2.3,1.5-3c0.7-0.5,2.3-1.2,3.4-1.2h0.1c1.1,0,1.7,0.3,2.6,0.6c0.5,0.2,0.9,0.2,1.5,0.2c0.9,0,1.3-0.3,1.6-0.6
		c0,0,0.1,0.2,0.1,0.5c0,0.4-0.1,0.8-0.3,1.1c-0.2,0.3-0.6,0.4-1,0.4h-0.1l-0.6-0.1l-0.1,0c0,0,0,0.1,0,0.2l0,0c0,0.2,0.1,0.8,0.1,1
		c0,1.9-0.8,2.8-1.6,3.4c-0.8,0.6-1.7,1-2.7,1.1c0,0-0.1,0-0.3,0c-0.1,0-0.3,0-0.3,0h0c-0.2,0-0.7,0.3-0.7,0.7
		c0,0.4,0.2,0.8,1.2,0.8l0.7,0c1.3,0.1,3,0.2,3.8,0.5c1.1,0.4,1.8,1.4,1.8,2.5c0,1.7-1.2,3.4-3.3,4.4C78,37.9,77,38.1,75.9,38.1
		L75.9,38.1z M89.3,21.7c-0.5,0-0.9,0.1-1.3,0.4c-0.9,0.6-1.4,1.7-1.4,3.3c0,3.1,1.5,5.3,3.8,5.3c0.7,0,1.2-0.2,1.6-0.6
		c0.7-0.6,1-1.7,1-3.3C93,23.7,91.5,21.7,89.3,21.7z M89.7,31.8c-4,0-5.4-2.9-5.4-5.7c0-1.9,0.8-3.4,2.3-4.5
		c1.1-0.7,2.4-1.1,3.6-1.1c3,0,5.2,2.2,5.2,5.3c0,2.1-0.8,3.8-2.5,4.9C92.1,31.3,90.8,31.8,89.7,31.8L89.7,31.8z M47.9,21.7
		c-0.5,0-0.9,0.1-1.3,0.4c-0.9,0.6-1.4,1.7-1.4,3.3c0,3.1,1.5,5.3,3.8,5.3c0.7,0,1.2-0.2,1.6-0.6c0.7-0.6,1-1.7,1-3.3
		C51.7,23.7,50.2,21.7,47.9,21.7z M48.3,31.8c-4,0-5.4-2.9-5.4-5.7c0-1.9,0.8-3.4,2.3-4.5c1.1-0.7,2.4-1.1,3.6-1.1
		c3,0,5.2,2.2,5.2,5.3c0,2.1-0.8,3.8-2.5,4.9C50.8,31.3,49.5,31.8,48.3,31.8L48.3,31.8z M21.6,31.5c0-0.1-0.1-0.3-0.1-0.5
		c0-0.1,0-0.2,0.1-0.4c0.5-0.1,0.8-0.1,1-0.2c0.5-0.1,0.7-0.4,0.7-1l0-6c0-0.2,0-0.5-0.3-0.7c-0.4-0.2-0.8-0.4-1.4-0.6
		c-0.2-0.1-0.3-0.2-0.3-0.3c0-0.1,0.1-0.3,0.4-0.4c0.8-0.1,2.8-0.6,3.6-0.9c0,0,0.1,0.2,0.1,0.4l0,0.3l0,0.9c0,0.1,0.1,0.2,0.2,0.2
		c0,0,0.1,0,0.1,0c1.5-1.2,2.9-1.6,3.6-1.6c1.1,0,2,0.5,2.7,1.7c0,0.1,0.1,0.1,0.2,0.1c0,0,0.1,0,0.1-0.1c1.4-1.1,2.8-1.7,3.7-1.7
		c2.2,0,3.5,1.6,3.5,4.4l0,2.7l0,2.1c0,0.1,0.2,0.5,0.4,0.6c0.3,0.2,0.8,0.2,1.4,0.3h0c0,0.2,0,0.8-0.1,0.9c-0.1,0-0.4,0-0.6,0
		l-1.8,0l-2.9,0.1c0-0.2-0.1-0.8,0-0.9c0.4-0.1,0.6-0.1,0.9-0.2c0.5-0.1,0.6-0.4,0.6-1l0-5.2c-0.1-0.9-0.8-2-2.4-2
		c-0.6,0-1.5,0.2-2.4,0.9c0,0-0.1,0.2-0.1,0.2v0c0.1,0.5,0.1,1.1,0.1,1.9v4.3c0,0.5,0.3,0.6,0.6,0.7l0.3,0.1l0.8,0.2
		c0,0.1,0,0.4,0,0.7c0,0.1-0.1,0.2-0.1,0.2l-2.8,0l-1.5,0l-1.1,0c0,0-0.1-0.2-0.1-0.5c0-0.2,0-0.4,0.1-0.4c0.1,0,0.2,0,0.3,0
		l0.8-0.1c0.4-0.1,0.5-0.3,0.6-0.8c0.1-1.2,0.1-4.5,0-5.4c-0.3-1.4-1.1-2-2.3-2c-0.7,0-1.6,0.4-2.4,0.9c-0.1,0.1-0.2,0.3-0.2,0.5
		v1.4l0,4.7c0,0.3,0.1,0.6,0.7,0.7c0.1,0,0.3,0.1,0.5,0.1l0.4,0.1c0,0.1,0,0.7-0.1,0.9c-0.2,0-0.5,0-0.8,0l-1.8,0l-1.9,0
		C22.1,31.5,21.8,31.5,21.6,31.5L21.6,31.5z"/>
	<g>
		<path id="B" class="st2" d="M9.2,37.2l-1-0.3c0,0,0.1-4.9-1.6-5.3c-1.2-1.4,0.2-58,4.4-0.2c0,0-1.5,0.7-1.7,2
			C9,34.6,9.2,37.2,9.2,37.2L9.2,37.2z"/>
	</g>
	<g>
		<path class="st3" d="M9.2,37.2l-1-0.3c0,0,0.1-4.9-1.6-5.3c-1.2-1.4,0.2-58,4.4-0.2c0,0-1.5,0.7-1.7,2C9,34.6,9.2,37.2,9.2,37.2
			L9.2,37.2z"/>
	</g>
	<g>
		<path id="C" class="st2" d="M9.7,32.4c0,0,8.4-5.6,6.4-17.1C14.3,6.9,9.8,4.1,9.3,3.1C8.8,2.3,8.3,1,8.3,1l0.4,23.4
			C8.6,24.4,7.9,31.6,9.7,32.4"/>
	</g>
	<g>
		<path class="st4" d="M9.7,32.4c0,0,8.4-5.6,6.4-17.1C14.3,6.9,9.8,4.1,9.3,3.1C8.8,2.3,8.3,1,8.3,1l0.4,23.4
			C8.6,24.4,7.9,31.6,9.7,32.4"/>
	</g>
	<g>
		<path id="D" class="st2" d="M7.8,32.7c0,0-7.9-5.4-7.4-15c0.4-9.5,6-14.2,7.1-15.1c0.7-0.8,0.7-1,0.8-1.8C8.7,2,8.6,16.8,8.7,18.5
			C8.9,25.2,8.3,31.5,7.8,32.7L7.8,32.7z"/>
	</g>
	<g>
		<path class="st5" d="M7.8,32.7c0,0-7.9-5.4-7.4-15c0.4-9.5,6-14.2,7.1-15.1c0.7-0.8,0.7-1,0.8-1.8C8.7,2,8.6,16.8,8.7,18.5
			C8.9,25.2,8.3,31.5,7.8,32.7L7.8,32.7z"/>
	</g>
</g>
</svg>
