<?xml version="1.0" encoding="utf-8"?>
<!-- Generator: Adobe Illustrator 23.0.0, SVG Export Plug-In . SVG Version: 6.00 Build 0)  -->
<svg version="1.1" id="Layer_1" xmlns="http://www.w3.org/2000/svg" xmlns:xlink="http://www.w3.org/1999/xlink" x="0px" y="0px"
	 viewBox="0 0 102.6 54.7" style="enable-background:new 0 0 102.6 54.7;" xml:space="preserve">
<style type="text/css">
	.st0{fill:#00678C;}
	.st1{fill:#CE8B2C;}
</style>
<g>
	<path class="st0" d="M0.6,49.1H4V35.8l5.2,11.6c0.6,1.4,1.4,1.9,3.1,1.9s2.4-0.5,3.1-1.9l5.2-11.6v13.3h3.4V35.8
		c0-1.3-0.5-1.9-1.6-2.3c-2.5-0.8-4.2-0.1-5,1.6l-5.1,11.5L7.3,35.1c-0.7-1.7-2.5-2.4-5-1.6c-1.1,0.3-1.6,1-1.6,2.3L0.6,49.1
		L0.6,49.1z M26.7,38.2h3.4v7.3c0,0.4,0.1,1.3,2,1.4h7.3v-8.7h3.4v12c0,2.9-3.6,3.6-5.3,3.6H26.8v-2.3h10.6c2.2-0.2,1.9-1.3,1.9-1.7
		V49h-7.1c-3.3,0-5.5-1.5-5.5-3.2L26.7,38.2L26.7,38.2z M99,29.8c-2.1-0.1-3.7,0.2-5,0.7c-0.4,0.2-1,0.2-1.1,0.6
		c0.2,0.2,0.2,0.5,0.4,0.8c0.3,0.5,0.8,1.2,1.3,1.6l1.6,1.2c1,0.6,2.1,1,3.1,1.6c0.6,0.4,1.1,0.8,1.7,1.2c0.3,0.2,0.5,0.5,0.8,0.7
		v-0.1c-0.2-0.2-0.2-0.6-0.4-0.8l-0.8-0.8c-0.8-1-1.7-1.9-2.7-2.6c-0.8-0.6-2.6-1.3-3-2.3l-0.1-0.1c0.6-0.1,1.2-0.3,1.8-0.4
		c0.9-0.2,1.7-0.2,2.6-0.4l1.2-0.4v-0.2c-0.5-0.5-0.8-1.1-1.3-1.5c-1.3-1.1-2.8-2.3-4.2-3.2c-0.8-0.5-1.8-0.9-2.7-1.3
		c-0.3-0.2-0.8-0.2-1-0.5c-0.5-0.6-0.7-1.3-1.1-2l-2.1-4.5c-0.5-1-0.7-2-1.3-3c-2.7-4.4-5.5-7.1-10-9.7c-1-0.5-2.1-0.8-3.3-1.1
		l-1.9-0.1c-0.4-0.2-0.8-0.7-1.2-0.9c-1.5-0.9-5.3-3-6.3-0.3c-0.7,1.7,1,3.3,1.6,4.2c0.4,0.6,1,1.3,1.3,1.9c0.2,0.4,0.2,0.9,0.4,1.4
		c0.4,1.1,0.8,2.4,1.3,3.5c0.3,0.5,0.6,1.1,1,1.6c0.2,0.3,0.6,0.4,0.6,0.9c-0.4,0.5-0.4,1.3-0.6,1.9c-0.9,2.9-0.6,6.5,0.7,8.7
		c0.4,0.6,1.4,2.1,2.7,1.5c1.2-0.5,0.9-1.9,1.2-3.2c0.1-0.3,0-0.5,0.2-0.7v0.1l1.1,2.1c0.8,1.3,2.2,2.6,3.3,3.5
		c0.6,0.5,1.1,1.3,1.9,1.6V31h-0.1c-0.2-0.2-0.4-0.3-0.6-0.5c-0.5-0.5-1-1-1.3-1.6c-1.1-1.4-2-3.1-2.9-4.7c-0.4-0.8-0.8-1.7-1.1-2.5
		C75,21.4,75,21,74.8,20.8c-0.4,0.6-1,1.1-1.2,1.8c-0.5,1.1-0.5,2.5-0.7,3.9c-0.1,0-0.1,0-0.1,0.1c-0.8-0.2-1.1-1.1-1.4-1.8
		c-0.8-1.8-0.9-4.8-0.2-6.9c0.2-0.5,1-2.3,0.6-2.8c-0.2-0.5-0.7-0.8-1-1.2c-0.3-0.5-0.7-1.1-0.9-1.7c-0.6-1.5-0.9-3.1-1.6-4.5
		c-0.3-0.7-0.8-1.4-1.3-2c-0.5-0.7-1-1.2-1.4-2c-0.1-0.3-0.3-0.8-0.1-1.1c0.1-0.2,0.2-0.3,0.4-0.3c0.3-0.3,1.3,0.1,1.6,0.2
		c1,0.4,1.8,0.8,2.5,1.3c0.4,0.3,0.7,0.7,1.2,0.9h0.5c0.8,0.2,1.8,0.1,2.5,0.3c1.4,0.4,2.6,1.1,3.7,1.8c3.4,2.1,6.2,5.2,8,8.8
		c0.3,0.6,0.4,1.1,0.7,1.8c0.5,1.3,1.2,2.6,1.8,3.8c0.5,1.2,1.1,2.5,1.8,3.5c0.4,0.5,1.9,0.8,2.6,1.1c0.5,0.2,1.3,0.4,1.8,0.7
		c0.9,0.5,1.8,1.2,2.6,1.8C97.6,28.6,98.9,29.2,99,29.8L99,29.8z M72.8,7.3c-0.4,0-0.7,0.1-1.1,0.1v0.1h0.1c0.2,0.4,0.6,0.7,0.8,1.1
		l0.6,1.2l0.1-0.1c0.4-0.3,0.5-0.7,0.5-1.3c-0.2-0.2-0.2-0.4-0.3-0.5C73.3,7.6,73,7.5,72.8,7.3L72.8,7.3z"/>
	<path class="st1" d="M45.3,49.1H55c1.1,0,2.2-0.2,3.1-0.6c1.5-0.7,2.2-1.6,2.2-2.8v-2.5c0-1-0.8-1.9-2.4-2.5
		C57,40.4,56,40.2,55,40.2h-4.1c-1.4,0-2-0.4-2.2-1.3c0-0.1,0-0.2,0-0.3v-1.5c0-0.1,0-0.2,0-0.3c0.2-0.7,0.5-0.9,1.7-1h9.9v-2.3
		h-9.4c-1.4,0-2.1,0.1-2.7,0.3c-2,0.6-2.9,1.6-2.9,3.3v2c0,1.5,1.7,2.8,4.6,3.1c0.3,0,0.6,0,1,0h3.5c0.1,0,0.3,0,0.4,0
		c1.1,0.1,1.5,0.3,1.8,0.7c0.2,0.2,0.3,0.4,0.3,0.6v2c0,0.2-0.2,0.5-0.5,0.8s-0.8,0.4-1.4,0.5c-0.1,0-0.2,0-0.3,0h-9.3L45.3,49.1
		L45.3,49.1z M81.2,45.2c0,2.3,1.7,3.6,5.2,3.9l1,0.1h8.8v-2.3h-8.8c-2,0-2.7-0.5-2.7-1.7V33.5h-3.4L81.2,45.2L81.2,45.2z
		 M62.4,45.3v-8c0-2,1.4-3.3,4.2-3.7l0.9-0.1h6.4c0.3,0,0.6,0,1,0.1c2.8,0.4,4.2,1.6,4.2,3.7v8c0,1.7-0.6,2.5-2,3.1l3.3,3h-3.9
		L73.8,49l-2.7,0.2h-3.6c-0.6,0-1.3-0.1-2-0.3C63.4,48.3,62.3,47.1,62.4,45.3L62.4,45.3z M66,45.1c0,0.1,0.1,0.2,0.1,0.3
		c0.2,0.9,1.1,1.4,2.4,1.4h3l-2.8-2.5h3.9l2.4,2.2c0.5-0.3,0.7-0.6,0.8-1.1c0-0.1,0-0.2,0-0.3v-7.7c0-0.1,0-0.2,0-0.3
		c-0.2-0.9-1.1-1.4-2.4-1.4h-5.1c-1.5,0-2.5,0.6-2.5,1.7L66,45.1L66,45.1z M97.6,49.1h0.5v-1.9h0.6v-0.4h-1.8v0.4h0.7L97.6,49.1
		L97.6,49.1z M101.3,49.1h0.5v-2.3h-0.7l-0.6,1.6l-0.6-1.6h-0.7v2.3h0.4v-1.7h0l0.6,1.7h0.3l0.6-1.7L101.3,49.1L101.3,49.1z"/>
</g>
</svg>
