<svg xmlns="http://www.w3.org/2000/svg" width="86" height="87" ><defs><linearGradient x1="-2.19067419%" y1="3.84128492%" x2="70.8927373%" y2="67.953202%" id="A"><stop stop-color="#5a9fd4" offset="0%"/><stop stop-color="#306998" offset="100%"/></linearGradient><linearGradient x1="64.6464724%" y1="71.7229197%" x2="38.8913626%" y2="34.3596472%" id="B"><stop stop-color="#ffd43b" offset="0%"/><stop stop-color="#ffe873" offset="100%"/></linearGradient></defs><g transform="translate(.959 .869)"><path d="M42.016.001c-3.507.016-6.856.315-9.802.837-8.68 1.534-10.256 4.743-10.256 10.664v7.818h20.513v2.606H14.259c-5.961 0-11.182 3.584-12.815 10.4-1.884 7.814-1.967 12.689 0 20.848 1.458 6.073 4.941 10.4 10.902 10.4H19.4v-9.372c0-6.771 5.858-12.743 12.815-12.743h20.489c5.704 0 10.256-4.696 10.256-10.424V11.5c0-5.559-4.69-9.735-10.256-10.664A63.99 63.99 0 0 0 42.016.001zM30.923 6.288c2.119 0 3.849 1.759 3.849 3.921 0 2.154-1.731 3.897-3.849 3.897-2.126 0-3.849-1.742-3.849-3.897 0-2.162 1.723-3.921 3.849-3.921z" fill="url(#A)"/><path d="M65.519 21.925v9.109c0 7.062-5.987 13.006-12.815 13.006H32.214c-5.613 0-10.256 4.803-10.256 10.424v19.533c0 5.56 4.834 8.83 10.256 10.424 6.493 1.91 12.72 2.255 20.489 0 5.164-1.495 10.256-4.505 10.256-10.424v-7.817H42.471v-2.606h30.746c5.962 0 8.183-4.159 10.256-10.4 2.142-6.425 2.051-12.605 0-20.848-1.474-5.935-4.287-10.4-10.256-10.4h-7.698zM53.994 71.391c2.126 0 3.849 1.742 3.849 3.897 0 2.162-1.723 3.921-3.849 3.921-2.119 0-3.849-1.759-3.849-3.921 0-2.154 1.731-3.897 3.849-3.897z" fill="url(#B)"/></g></svg>