<?xml version="1.0" encoding="utf-8"?>
<!-- Generator: Adobe Illustrator 23.0.0, SVG Export Plug-In . SVG Version: 6.00 Build 0)  -->
<svg version="1.1" id="Layer_1" xmlns="http://www.w3.org/2000/svg" xmlns:xlink="http://www.w3.org/1999/xlink" x="0px" y="0px"
	 viewBox="0 0 62.7 56" style="enable-background:new 0 0 62.7 56;" xml:space="preserve">
<style type="text/css">
	.st0{fill:#53C1DE;}
	.st1{fill:#FFFFFF;}
</style>
<g>
	<path class="st0" d="M51.1,18.4l-2-0.6l0.3-1.3C51,9.1,50,3.3,46.6,1.4C43.4-0.5,38.2,1.4,32.9,6c-0.5,0.5-1,0.9-1.5,1.4
		c-0.3-0.3-0.7-0.6-1-0.9c-5.5-4.9-11.1-7-14.4-5.1c-3.2,1.9-4.1,7.4-2.8,14.2c0.1,0.7,0.3,1.4,0.5,2c-0.8,0.2-1.5,0.5-2.3,0.7
		c-6.5,2.3-10.7,5.8-10.7,9.5c0,3.8,4.5,7.6,11.2,9.9c0.5,0.2,1.1,0.4,1.7,0.5c-0.2,0.7-0.3,1.5-0.5,2.2c-1.3,6.8-0.3,12.1,2.9,14
		c3.3,1.9,8.8-0.1,14.2-4.8c0.4-0.4,0.9-0.8,1.3-1.2c0.5,0.5,1.1,1,1.7,1.5c5.2,4.5,10.4,6.3,13.6,4.5c3.3-1.9,4.4-7.7,3-14.7
		c-0.1-0.5-0.2-1.1-0.4-1.6c0.4-0.1,0.8-0.2,1.1-0.4c7-2.3,11.6-6.1,11.6-10C62,24.2,57.8,20.7,51.1,18.4L51.1,18.4z"/>
	<path class="st1" d="M49.6,35.4l-1,0.3c-0.8-2.5-1.8-5.1-3.1-7.8c1.2-2.6,2.2-5.2,3-7.7l1.8,0.6c5.7,2,9.1,4.8,9.1,7.1
		C59.4,30.3,55.7,33.4,49.6,35.4L49.6,35.4z M47.1,40.4c0.6,3.1,0.7,5.9,0.3,8.1c-0.4,2-1.1,3.3-2,3.8c-1.9,1.1-6.1-0.3-10.5-4.2
		c-0.5-0.4-1-0.9-1.5-1.4c1.7-1.9,3.5-4.1,5.1-6.5c3-0.3,5.8-0.7,8.3-1.3C46.9,39.4,47,39.9,47.1,40.4L47.1,40.4z M21.6,52.1
		c-1.9,0.7-3.4,0.7-4.3,0.2c-1.9-1.1-2.7-5.4-1.6-11.2c0.1-0.7,0.3-1.4,0.4-2c2.5,0.6,5.3,1,8.3,1.2c1.7,2.4,3.5,4.6,5.3,6.5
		c-0.4,0.4-0.8,0.7-1.2,1.1C26.1,49.9,23.7,51.4,21.6,52.1L21.6,52.1z M12.7,35.4c-3-1-5.5-2.4-7.2-3.8C4,30.3,3.3,29,3.3,27.9
		c0-2.2,3.3-5.1,8.9-7c0.7-0.2,1.4-0.5,2.1-0.7c0.8,2.5,1.8,5.1,3,7.8c-1.2,2.7-2.3,5.3-3,7.9C13.7,35.7,13.2,35.6,12.7,35.4
		L12.7,35.4z M15.7,15.2c-1.2-5.9-0.4-10.3,1.5-11.5c2.1-1.2,6.6,0.5,11.4,4.8c0.3,0.3,0.6,0.6,0.9,0.9c-1.8,1.9-3.5,4.1-5.2,6.5
		c-2.9,0.3-5.7,0.7-8.2,1.3C16,16.4,15.8,15.8,15.7,15.2z M42.2,21.7c-0.6-1-1.2-2.1-1.9-3.1c2,0.2,3.8,0.6,5.6,1
		c-0.5,1.7-1.2,3.5-2,5.3C43.4,23.8,42.8,22.8,42.2,21.7L42.2,21.7z M31.4,11.2c1.2,1.3,2.4,2.8,3.6,4.4c-2.4-0.1-4.8-0.1-7.3,0
		C28.9,14,30.2,12.5,31.4,11.2z M20.5,21.7c-0.6,1-1.2,2.1-1.7,3.2c-0.8-1.8-1.4-3.6-1.9-5.3c1.8-0.4,3.6-0.7,5.6-1
		C21.7,19.7,21.1,20.7,20.5,21.7L20.5,21.7z M22.5,37.4c-1.9-0.2-3.8-0.5-5.7-0.9c0.5-1.8,1.2-3.6,2-5.4c0.6,1.1,1.1,2.1,1.7,3.2
		C21.2,35.3,21.8,36.4,22.5,37.4L22.5,37.4z M31.5,44.8c-1.2-1.3-2.5-2.8-3.7-4.4c1.2,0,2.4,0.1,3.6,0.1c1.3,0,2.5,0,3.7-0.1
		C33.9,42,32.7,43.4,31.5,44.8L31.5,44.8z M44,31c0.8,1.9,1.5,3.7,2.1,5.4c-1.8,0.4-3.7,0.7-5.7,1c0.6-1,1.3-2.1,1.9-3.1
		C42.8,33.2,43.4,32.1,44,31L44,31z M39.9,32.9C39,34.5,38,36.1,37,37.7c-1.8,0.1-3.7,0.2-5.6,0.2c-1.9,0-3.7-0.1-5.6-0.2
		c-1.1-1.5-2.1-3.1-3-4.8c-0.9-1.6-1.8-3.3-2.6-4.9c0.8-1.7,1.7-3.3,2.6-5c0.9-1.6,1.9-3.2,3-4.7c1.8-0.1,3.7-0.2,5.6-0.2
		c1.9,0,3.8,0.1,5.6,0.2c1,1.5,2,3.1,3,4.7c0.9,1.6,1.8,3.3,2.6,4.9C41.7,29.6,40.9,31.3,39.9,32.9L39.9,32.9z M45.3,3.6
		c2.1,1.2,2.9,6,1.6,12.2c-0.1,0.4-0.2,0.8-0.3,1.2c-2.5-0.6-5.3-1-8.2-1.3c-1.7-2.4-3.4-4.6-5.2-6.5c0.5-0.4,0.9-0.9,1.4-1.3
		C39.2,4.1,43.4,2.5,45.3,3.6z"/>
	<path class="st0" d="M31.4,22.4c3,0,5.5,2.5,5.5,5.5s-2.5,5.5-5.5,5.5s-5.5-2.5-5.5-5.5S28.3,22.4,31.4,22.4"/>
</g>
</svg>
