<svg xmlns="http://www.w3.org/2000/svg" viewBox="0 0 733.7 159.9"><defs><style>.cls-1{fill:#243746;}.cls-2{fill:#99e1f4;}.cls-3{fill:#1a82e2;}.cls-4{fill:#00b2e3;}.cls-5{fill:#009dd9;}</style></defs><title>Asset 1</title><g id="Layer_2" data-name="Layer 2"><g id="Layer_1-2" data-name="Layer 1"><path class="cls-1" d="M151.12,140.86l18.46-14.53c5.23,9,13.51,14.24,23,14.24,10.32,0,15.84-6.69,15.84-13.95,0-8.72-10.61-11.48-21.94-15-14.25-4.36-30.09-9.88-30.09-30.23,0-17,14.83-30.52,35.32-30.52,17.29,0,27.17,6.54,35.75,15.41L210.71,79c-4.36-6.54-10.61-10-18.9-10-9.44,0-14.53,5.09-14.53,11.77,0,8.14,10.17,10.9,21.51,14.68,14.39,4.65,30.66,11,30.66,31.39,0,16.86-13.37,33.14-36.77,33.14-19.18,0-32-8.14-41.56-19M313.68,85.78h19.77v8.14a25,25,0,0,1,20.05-9.59c17.15,0,27.47,11,27.47,29.79v44.32h-20.2V116.73c0-9.73-4.51-15.4-13.37-15.4-7.56,0-13.81,5.23-13.81,17.44v39.67H313.68Zm72,36.33c0-25.72,18.89-37.78,35.32-37.78,9.44,0,16.85,3.48,21.65,8.57V52.35h19.91V158.44H442.61v-8.13c-4.8,5.66-12.5,9.59-21.94,9.59-15.41,0-35-12.21-35-37.79m57.55-.14c0-10.76-7.85-19.48-18.6-19.48a19.55,19.55,0,0,0,0,39.1c10.75,0,18.6-8.87,18.6-19.62m24-16.57c0-30.23,22.82-54.5,54.21-54.5,15.7,0,28.9,5.65,38.46,14.66a52.93,52.93,0,0,1,9.79,12.52L551.92,88.83c-6.54-12.06-16.57-18.31-30.38-18.31-19.33,0-34.29,15.84-34.29,34.88,0,19.47,14.67,34.88,35,34.88,15.41,0,26.3-8.72,30.08-22.24H519.07V98.71h55.08v8.14c0,28.49-20.34,53.05-51.88,53.05-33.13,0-55.08-25.14-55.08-54.5m112-19.62H599V97.7c3.64-7.56,10.18-11.92,20.06-11.92h8l-7.22,19.33h-5.42c-10.61,0-15.26,5.52-15.26,19v34.29H579.2Zm53,0h19.91v72.66H632.24V105.11H625Zm10-11.06a11.91,11.91,0,1,0-11.91-11.91,11.91,11.91,0,0,0,11.91,11.91m14.63,47.39c0-25.72,18.89-37.78,35.31-37.78,9.45,0,16.86,3.48,21.66,8.57V52.35H733.7V158.44H713.79v-8.13c-4.8,5.66-12.5,9.59-21.95,9.59-15.4,0-35-12.21-35-37.79m57.55-.14c0-10.76-7.85-19.48-18.6-19.48a19.55,19.55,0,0,0,0,39.1c10.75,0,18.6-8.87,18.6-19.62M309,122c0-20.93-15.26-37.64-37.5-37.64a37.7,37.7,0,0,0-37.78,37.78c0,20.93,15.69,37.79,38.37,37.79,15.7,0,27-7.58,33.34-18.43l-15.79-9.42a19.22,19.22,0,0,1-17.41,10.41c-10.46,0-17-5.23-19.33-13.23H309Zm-55.23-8.72a19,19,0,0,1,17.88-11.48c8.43,0,14.68,3.92,17.29,11.48Z"/><rect class="cls-2" x="42.43" y="116.01" width="42.43" height="42.43"/><polygon class="cls-2" points="42.43 73.58 42.43 73.58 0 73.58 0 116.01 42.43 116.01 42.43 73.58"/><rect class="cls-3" y="116.01" width="42.43" height="42.43"/><polygon class="cls-4" points="127.3 73.58 127.3 73.58 84.87 73.58 84.87 116.01 127.3 116.01 127.3 73.58"/><rect class="cls-4" x="42.43" y="31.14" width="42.43" height="42.43"/><rect class="cls-5" x="42.43" y="73.58" width="42.43" height="42.43"/><rect class="cls-3" x="84.87" y="31.14" width="42.43" height="42.43"/><polygon class="cls-1" points="171.14 5.51 171.14 30.25 165.41 30.25 165.41 5.51 156.59 5.51 156.59 0.56 179.99 0.56 179.98 5.51 171.14 5.51"/><polygon class="cls-1" points="221.7 30.25 216.28 30.25 209.7 8.65 203.11 30.25 197.74 30.25 189.44 0.42 195.44 0.5 200.96 21.51 207.16 0.56 212.88 0.56 219.08 21.51 224.5 0.56 230.22 0.56 221.7 30.25"/><rect class="cls-1" x="241.51" y="0.56" width="5.72" height="29.69"/><polygon class="cls-1" points="260.49 30.25 260.49 0.56 266.21 0.56 266.21 25.21 276.1 25.21 276.15 30.25 260.49 30.25"/><rect class="cls-1" x="288.03" y="0.56" width="5.72" height="29.69"/><path class="cls-1" d="M319.74,30.81c-8.43,0-13.89-6.2-13.89-15.37S311.35,0,319.83,0s13.9,6.19,13.9,15.36-5.47,15.45-14,15.45m.05-26.08c-5.08,0-8.14,4.18-8.14,10.67s3.06,10.67,8.14,10.67S328,21.9,328,15.4s-3.1-10.67-8.17-10.67"/></g></g></svg>