<?xml version="1.0" encoding="utf-8"?>
<!-- Generator: Adobe Illustrator 23.0.0, SVG Export Plug-In . SVG Version: 6.00 Build 0)  -->
<svg version="1.1" id="Layer_1" xmlns="http://www.w3.org/2000/svg" xmlns:xlink="http://www.w3.org/1999/xlink" x="0px" y="0px"
	 viewBox="0 0 83.6 35.1" style="enable-background:new 0 0 83.6 35.1;" xml:space="preserve">
<style type="text/css">
	.st0{fill:#359AD5;}
</style>
<g>
	<path class="st0" d="M75.9,13c-1.7,0-1.5,2-1.6,4.2h2.8C77.1,14.8,77.1,13,75.9,13L75.9,13z M74.3,20.8c0,2,1,2.4,2.6,2.4
		c1.9,0,4.4-0.6,5.4-0.7v4.8c-0.8,0.3-3.1,0.9-5.4,0.9c-4.1,0-9.2-0.7-9.2-9.5c0-7.8,4-9.6,8.1-9.6c4.3,0,7.4,2.2,7.4,9.5v2.2H74.3z
		 M58,14c-0.4,0-1.1,0.3-1.6,0.6v8.9c0.3,0.1,0.9,0.2,1.1,0.2c1.1,0,1.8-1,1.8-5C59.4,14.4,59.1,14,58,14L58,14z M58.8,28.2
		c-0.8,0-1.7-0.2-2.3-0.4v6.6h-6.6v-25h5.4l1,1.1c1-0.9,2.4-1.5,3.9-1.5c2.7,0,5.9,0.8,5.9,9.4C66,28.1,61.2,28.2,58.8,28.2
		L58.8,28.2z M43.8,7.2c-1.8,0-3.3-1.5-3.3-3.3s1.4-3.3,3.3-3.3S47,2.1,47,3.9S45.6,7.2,43.8,7.2z M40.5,27.8V9.5h6.6v18.4H40.5z
		 M36.5,14.6c-1,0-1.8,0.4-2.2,0.6v12.6h-6.6V9.5h5.3l1,1.8c0.4-1.1,1.4-2.1,3-2.1c1,0,1.7,0.2,2.1,0.4V15
		C38.2,14.8,37.4,14.6,36.5,14.6L36.5,14.6z M23.9,23.2c0.4,0,1.9-0.2,2.4-0.3v4.7c-1,0.2-3.2,0.6-4.7,0.6c-1.9,0-5.4-0.2-5.4-5.3
		v-9.2h-2.4V9.5h2.4L17,5.3l5.8-1.4v5.6h3.5l-0.9,4.2h-2.6v8.1C22.8,23,23.2,23.2,23.9,23.2L23.9,23.2z M6.8,14.8
		c0,0.7,0.5,1,1.6,1.5l0.7,0.3c1.6,0.7,3.9,1.9,3.9,5.4c0,5.6-4.1,6.2-7.1,6.2c-1.9,0-3.9-0.5-5.3-0.9v-4.8c1.2,0.3,3.2,0.8,4.1,0.8
		c1,0,1.8-0.1,1.8-1c0-0.7-0.5-1-1.6-1.5l-0.8-0.4c-1.6-0.7-3.8-2-3.8-5.3c0-4.9,3.9-6,7.1-6c2.4,0,4,0.6,4.9,0.9v4.6
		c-1-0.3-3-0.7-4.1-0.7C7.4,13.9,6.8,14.1,6.8,14.8L6.8,14.8z"/>
</g>
</svg>
